<svg width="155" height="41" viewBox="0 0 10024 3670" fill="none" xmlns="http://www.w3.org/2000/svg">
<path d="M2270 1270C2316.67 1020 2296.67 813.333 2210 650C2123.33 486.667 2000 363.333 1840 280C1760 243.333 1671.67 213.333 1575 190C1481.67 166.666 1385 153.333 1285 150C1188.33 143.333 1091.67 146.666 995 160C898.333 170 810 191.667 730 225C570 291.666 433.333 393.333 320 530C210 666.667 135 818.333 95 985C55 1151.67 56.6667 1323.33 100 1500C146.667 1676.67 246.667 1838.33 400 1985C446.667 2025 498.333 2060 555 2090C611.667 2120 673.333 2141.67 740 2155C810 2168.33 885 2183.33 965 2200C1045 2213.33 1118.33 2235 1185 2265C1255 2295 1315 2335 1365 2385C1415 2431.67 1445 2495 1455 2575C1475 2691.67 1451.67 2778.33 1385 2835C1321.67 2891.67 1245 2921.67 1155 2925C1068.33 2925 985 2898.33 905 2845C828.333 2791.67 786.667 2711.67 780 2605C666.667 2608.33 540 2606.67 400 2600C260 2590 131.667 2593.33 15 2610V2625V2640C5 2800 33.3333 2943.33 100 3070C166.667 3193.33 256.667 3298.33 370 3385C483.333 3471.67 611.667 3540 755 3590C901.667 3636.67 1048.33 3661.67 1195 3665C1298.33 3668.33 1398.33 3660 1495 3640C1595 3616.67 1686.67 3581.67 1770 3535C1856.67 3488.33 1933.33 3428.33 2000 3355C2066.67 3281.67 2120 3193.33 2160 3090C2200 3003.33 2228.33 2913.33 2245 2820C2265 2723.33 2271.67 2628.33 2265 2535C2261.67 2441.67 2245 2351.67 2215 2265C2185 2175 2140 2091.67 2080 2015C1983.33 1871.67 1858.33 1753.33 1705 1660C1555 1566.67 1391.67 1510 1215 1490C1145 1480 1080 1461.67 1020 1435C960 1408.33 916.667 1355 890 1275C886.667 1251.67 883.333 1230 880 1210C880 1186.67 883.333 1163.33 890 1140C903.333 1046.67 946.667 983.333 1020 950C1096.67 916.666 1175 908.333 1255 925C1335 941.666 1403.33 980 1460 1040C1516.67 1100 1535 1175 1515 1265C1631.67 1298.33 1756.67 1313.33 1890 1310C2023.33 1303.33 2148.33 1290 2265 1270H2270ZM3141.76 3640V3635V3630C3141.76 3606.67 3143.42 3563.33 3146.76 3500C3150.09 3436.67 3153.42 3371.67 3156.76 3305C3160.09 3238.33 3163.42 3180 3166.76 3130C3170.09 3076.67 3171.76 3048.33 3171.76 3045C3148.42 3035 3108.42 3028.33 3051.76 3025C2998.42 3018.33 2940.09 3015 2876.76 3015C2813.42 3015 2750.09 3018.33 2686.76 3025C2626.76 3031.67 2580.09 3041.67 2546.76 3055C2546.76 3078.33 2545.09 3115 2541.76 3165C2541.76 3215 2540.09 3268.33 2536.76 3325C2536.76 3381.67 2536.76 3438.33 2536.76 3495C2540.09 3551.67 2545.09 3598.33 2551.76 3635H2566.76L3131.76 3640H3141.76ZM5584.02 965C5580.69 838.333 5584.02 706.667 5594.02 570C5604.02 433.333 5600.69 300 5584.02 170C5200.69 166.666 4825.69 161.666 4459.02 155C4092.36 145 3737.36 156.666 3394.02 190C3400.69 196.666 3404.02 203.333 3404.02 210V215C3420.69 268.333 3429.02 328.333 3429.02 395C3432.36 458.333 3434.02 521.666 3434.02 585C3434.02 648.333 3435.69 708.333 3439.02 765C3442.36 821.666 3454.02 866.667 3474.02 900C3534.02 900 3615.69 903.333 3719.02 910C3825.69 913.333 3937.36 918.333 4054.02 925C4170.69 928.333 4284.02 933.333 4394.02 940C4507.36 946.666 4602.36 955 4679.02 965C4582.36 1101.67 4477.36 1246.67 4364.02 1400C4254.02 1553.33 4142.36 1710 4029.02 1870C3919.02 2030 3814.02 2191.67 3714.02 2355C3614.02 2518.33 3527.36 2681.67 3454.02 2845C3460.69 2915 3462.36 2985 3459.02 3055C3459.02 3121.67 3459.02 3190 3459.02 3260C3459.02 3326.67 3460.69 3393.33 3464.02 3460C3467.36 3523.33 3479.02 3585 3499.02 3645C3855.69 3625 4205.69 3616.67 4549.02 3620C4895.69 3623.33 5227.36 3633.33 5544.02 3650V3640C5554.02 3520 5562.36 3388.33 5569.02 3245C5575.69 3101.67 5570.69 2966.67 5554.02 2840V2825C5410.69 2831.67 5289.02 2836.67 5189.02 2840C5092.36 2840 4999.02 2841.67 4909.02 2845C4822.36 2845 4730.69 2848.33 4634.02 2855C4540.69 2861.67 4427.36 2873.33 4294.02 2890L4299.02 2885C4509.02 2561.67 4727.36 2243.33 4954.02 1930C5180.69 1616.67 5390.69 1296.67 5584.02 970V965ZM6532.19 1410C6532.19 1396.67 6532.19 1355 6532.19 1285C6532.19 1215 6532.19 1131.67 6532.19 1035C6532.19 938.333 6532.19 835 6532.19 725C6532.19 611.667 6532.19 506.666 6532.19 410C6532.19 310 6532.19 225 6532.19 155C6532.19 81.6665 6530.52 36.6665 6527.19 19.9998C6527.19 9.99975 6513.85 4.99971 6487.19 4.99971C6460.52 1.66642 6430.52 1.66642 6397.19 4.99971C6363.85 8.3332 6330.52 13.3332 6297.19 19.9998C6263.85 23.3331 6240.52 24.9998 6227.19 24.9998C6187.19 28.333 6153.85 31.6664 6127.19 34.9999C6100.52 34.9999 6075.52 34.9999 6052.19 34.9999C6028.85 34.9999 6003.85 34.9999 5977.19 34.9999C5950.52 31.6664 5917.19 28.333 5877.19 24.9998C5873.85 171.667 5870.52 345 5867.19 545C5867.19 741.667 5867.19 951.667 5867.19 1175C5867.19 1398.33 5867.19 1628.33 5867.19 1865C5867.19 2098.33 5867.19 2325 5867.19 2545C5870.52 2765 5872.19 2971.67 5872.19 3165C5875.52 3355 5877.19 3518.33 5877.19 3655C5957.19 3648.33 6023.85 3646.67 6077.19 3650C6130.52 3653.33 6178.85 3655 6222.19 3655C6265.52 3658.33 6307.19 3658.33 6347.19 3655C6390.52 3651.67 6440.52 3641.67 6497.19 3625V3605C6510.52 3495 6517.19 3385 6517.19 3275C6517.19 3165 6513.85 3055 6507.19 2945C6503.85 2831.67 6500.52 2720 6497.19 2610C6493.85 2496.67 6495.52 2381.67 6502.19 2265C6508.85 2175 6532.19 2108.33 6572.19 2065C6612.19 2018.33 6657.19 1988.33 6707.19 1975C6757.19 1958.33 6807.19 1955 6857.19 1965C6910.52 1971.67 6950.52 1981.67 6977.19 1995C6980.52 1998.33 6983.85 2000 6987.19 2000C6990.52 2000 6993.85 2001.67 6997.19 2005C7023.85 2025 7043.85 2053.33 7057.19 2090C7073.85 2126.67 7085.52 2168.33 7092.19 2215C7102.19 2261.67 7108.85 2310 7112.19 2360C7115.52 2406.67 7118.85 2450 7122.19 2490C7128.85 2580 7132.19 2676.67 7132.19 2780C7135.52 2883.33 7135.52 2986.67 7132.19 3090C7132.19 3193.33 7132.19 3293.33 7132.19 3390C7132.19 3486.67 7135.52 3573.33 7142.19 3650C7258.85 3650 7362.19 3650 7452.19 3650C7545.52 3653.33 7650.52 3646.67 7767.19 3630C7760.52 3516.67 7758.85 3385 7762.19 3235C7765.52 3085 7768.85 2930 7772.19 2770C7775.52 2606.67 7777.19 2446.67 7777.19 2290C7780.52 2130 7778.85 1983.33 7772.19 1850C7768.85 1716.67 7757.19 1603.33 7737.19 1510C7720.52 1413.33 7695.52 1350 7662.19 1320C7592.19 1260 7513.85 1218.33 7427.19 1195C7340.52 1171.67 7250.52 1161.67 7157.19 1165C7067.19 1168.33 6978.85 1185 6892.19 1215C6805.52 1245 6727.19 1285 6657.19 1335C6640.52 1348.33 6618.85 1361.67 6592.19 1375C6568.85 1388.33 6548.85 1400 6532.19 1410ZM9343.4 3370C9346.73 3416.67 9346.73 3458.33 9343.4 3495C9343.4 3531.67 9346.73 3578.33 9353.4 3635C9353.4 3645 9366.73 3650 9393.4 3650C9420.07 3653.33 9450.07 3653.33 9483.4 3650C9516.73 3646.67 9550.07 3643.33 9583.4 3640C9616.73 3633.33 9640.07 3630 9653.4 3630C9693.4 3626.67 9726.73 3625 9753.4 3625C9780.07 3621.67 9805.07 3620 9828.4 3620C9851.73 3620 9876.73 3621.67 9903.4 3625C9930.07 3625 9963.4 3626.67 10003.4 3630C10016.7 3190 10018.4 2765 10008.4 2355C10001.7 1945 9998.4 1535 9998.4 1125C9918.4 1131.67 9851.73 1133.33 9798.4 1130C9745.07 1126.67 9696.73 1125 9653.4 1125C9610.07 1121.67 9566.73 1121.67 9523.4 1125C9483.4 1128.33 9435.07 1138.33 9378.4 1155V1175C9361.73 1285 9353.4 1395 9353.4 1505C9356.73 1615 9360.07 1726.67 9363.4 1840C9370.07 1950 9375.07 2061.67 9378.4 2175C9381.73 2288.33 9380.07 2401.67 9373.4 2515C9366.73 2605 9343.4 2673.33 9303.4 2720C9263.4 2763.33 9218.4 2793.33 9168.4 2810C9118.4 2823.33 9066.73 2826.67 9013.4 2820C8963.4 2810 8925.07 2798.33 8898.4 2785C8895.07 2781.67 8891.73 2780 8888.4 2780C8885.07 2780 8881.73 2778.33 8878.4 2775C8851.73 2755 8830.07 2726.67 8813.4 2690C8800.07 2653.33 8788.4 2611.67 8778.4 2565C8771.73 2518.33 8766.73 2471.67 8763.4 2425C8760.07 2375 8756.73 2330 8753.4 2290C8746.73 2200 8741.73 2103.33 8738.4 2000C8738.4 1896.67 8738.4 1793.33 8738.4 1690C8741.73 1586.67 8743.4 1486.67 8743.4 1390C8743.4 1293.33 8740.07 1206.67 8733.4 1130C8616.73 1130 8511.73 1130 8418.4 1130C8328.4 1126.67 8225.07 1133.33 8108.4 1150C8115.07 1263.33 8116.73 1395 8113.4 1545C8110.07 1695 8106.73 1851.67 8103.4 2015C8100.07 2175 8096.73 2335 8093.4 2495C8093.4 2651.67 8095.07 2796.67 8098.4 2930C8105.07 3063.33 8116.73 3178.33 8133.4 3275C8153.4 3368.33 8180.07 3430 8213.4 3460C8283.4 3520 8361.73 3561.67 8448.4 3585C8535.07 3608.33 8623.4 3618.33 8713.4 3615C8806.73 3611.67 8896.73 3595 8983.4 3565C9070.07 3535 9148.4 3495 9218.4 3445C9235.07 3431.67 9255.07 3418.33 9278.4 3405C9305.07 3391.67 9326.73 3380 9343.4 3370Z" fill="white"/>
</svg>
