<svg xmlns="http://www.w3.org/2000/svg" viewBox="0 0 448 716.8" width="400" height="400"><path d="M434.84 505.96c17.5 17.5 17.5 45.85 0 63.35C426.16 578.06 414.68 582.4 403.2 582.4s-22.932 -4.375 -31.668 -13.125L224 421.82L76.482 569.24C67.732 578.06 56.266 582.4 44.8 582.4S21.882 578.06 13.125 569.24c-17.5 -17.5 -17.5 -45.85 0 -63.35l147.56 -147.56L13.125 210.84c-17.5 -17.5 -17.5 -45.85 0 -63.35s45.85 -17.5 63.35 0L224 295.12l147.56 -147.56c17.5 -17.5 45.85 -17.5 63.35 0s17.5 45.85 0 63.35l-147.56 147.56L434.84 505.96z"/></svg>